# xmcd CD database file
#
# Track frame offsets:
#	150
#	23606
#	55046
#	86666
#	113679
#	129177
#	159091
#	170842
#	195629
#	218333
#
# Disc length: 3291 seconds
#
# Revision: 0
# Processed by: cddbd v1.5.2PL0 Copyright (c) Steve Scherf et al.
# Submitted via: CDex 1.70beta2
#
DISCID=700cd90a
DTITLE=Bill Frisell - Where in the World?
DYEAR=1991
DGENRE=Jazz
TTITLE0=Unsung Heroes
TTITLE1=Rob Roy
TTITLE2=Spell
TTITLE3=Child at Heart
TTITLE4=Beautiful E.
TTITLE5=Again
TTITLE6=Smillin' Jones
TTITLE7=Where in the World?
TTITLE8=Worry Doll
TTITLE9=Let Me In
EXTD=YEAR: 1991
EXTT0=
EXTT1=
EXTT2=
EXTT3=
EXTT4=
EXTT5=
EXTT6=
EXTT7=
EXTT8=
EXTT9=
PLAYORDER=
